<svg width="32" height="32" viewBox="0 0 32 32" fill="none" xmlns="http://www.w3.org/2000/svg">
<rect width="32" height="32" rx="4" fill="white"/>
<path fill-rule="evenodd" clip-rule="evenodd" d="M26.9015 12.4695C28.3496 14.3542 28.3159 17.0799 27.095 19.1089C26.8898 19.4499 26.6494 19.7735 26.3782 20.068L16.3221 30.981C16.2913 31.0146 16.2591 31.0029 16.2166 30.9519L13.2441 27.337C13.2178 27.2977 13.2163 27.2612 13.2412 27.235L20.6488 19.1949L26.9 12.4695H26.9015ZM6.23227 11.9724C6.06957 12.1867 5.92154 12.4374 5.79109 12.7216L9.18417 11.8179L11.0251 13.8892L19.425 4.77334C19.4558 4.73981 19.4499 4.699 19.4133 4.65236L16.4379 1.03896C16.4042 0.998145 16.369 0.989399 16.3294 1.01272L6.2308 11.9724H6.23227ZM18.1747 10.7641L11.2493 18.1847L5.68116 12.9767C2.60614 18.9296 10.6777 25.3795 15.2331 20.4673L24.6516 10.3137C23.3237 9.35896 20.0376 8.76717 18.1733 10.7641H18.1747Z" fill="url(#paint0_linear_505_3866)"/>
<defs>
<linearGradient id="paint0_linear_505_3866" x1="16.4995" y1="31" x2="16.4995" y2="0.999603" gradientUnits="userSpaceOnUse">
<stop stop-color="#1C83C6"/>
<stop offset="0.7" stop-color="#22B465"/>
<stop offset="1" stop-color="#1EB359"/>
</linearGradient>
</defs>
</svg>
